<?xml version="1.0" encoding="utf-8"?>
<!-- Generator: Adobe Illustrator 26.4.1, SVG Export Plug-In . SVG Version: 6.00 Build 0)  -->
<svg version="1.1" id="Layer_1" xmlns="http://www.w3.org/2000/svg" xmlns:xlink="http://www.w3.org/1999/xlink" x="0px" y="0px"
	 viewBox="0 0 200 200" style="enable-background:new 0 0 200 200;" xml:space="preserve">
<style type="text/css">
	.st0{fill:none;}
	.st1{fill:#1C1D1B;}
	.st2{opacity:0.05;fill:url(#New_Pattern);}
</style>
<pattern  x="-583" y="-284" width="200" height="200" patternUnits="userSpaceOnUse" id="New_Pattern" viewBox="0 -211.93 200 200" style="overflow:visible;">
	<g>
		<rect y="-211.93" class="st0" width="200" height="200"/>
		<g>
			<path class="st1" d="M101.23-1.01c-0.42-0.39-0.71-0.94-0.91-1.55c-1.43-4.5-4.47-7.27-9.06-8.32c-2.42-0.56-3.66-2.78-2.65-4.99
				c0.38-0.84,1.14-1.37,2.04-1.7c4.69-1.73,9.36-3.48,14.04-5.22c0.82-0.3,1.63-0.62,2.45-0.92c1.28-0.47,2.46-0.28,3.47,0.63
				c1.04,0.93,1.38,2.12,1.01,3.47c-1.56,5.69-3.13,11.38-4.72,17.07C106.19,0.02,103.16,0.85,101.23-1.01z"/>
			<path class="st1" d="M161.67-58.01c-1-0.92-1.67-2.2-2.13-3.63c-3.35-10.55-10.48-17.02-21.23-19.5
				c-5.66-1.3-8.58-6.52-6.22-11.68c0.9-1.96,2.68-3.22,4.78-3.99c10.98-4.05,21.94-8.15,32.9-12.23c1.91-0.71,3.81-1.46,5.73-2.16
				c2.99-1.09,5.77-0.65,8.13,1.47c2.44,2.18,3.24,4.97,2.36,8.14c-3.67,13.34-7.33,26.67-11.05,39.99
				C173.28-55.59,166.17-53.63,161.67-58.01z"/>
			<path class="st1" d="M129.12-122.42c-0.56-0.52-0.95-1.24-1.21-2.06c-1.9-5.98-5.95-9.65-12.04-11.06
				c-3.21-0.74-4.87-3.7-3.53-6.63c0.51-1.11,1.52-1.82,2.71-2.26c6.22-2.3,12.44-4.62,18.66-6.93c1.09-0.4,2.16-0.83,3.25-1.22
				c1.7-0.62,3.27-0.37,4.61,0.83c1.39,1.24,1.83,2.82,1.34,4.61c-2.08,7.56-4.15,15.12-6.27,22.68
				C135.71-121.05,131.68-119.94,129.12-122.42z"/>
			<path class="st1" d="M43.97-128.95c-0.93-0.85-1.56-2.04-1.98-3.38c-3.12-9.81-9.75-15.83-19.75-18.14
				c-5.26-1.21-7.98-6.07-5.78-10.87c0.84-1.82,2.49-2.99,4.44-3.71c10.21-3.77,20.4-7.58,30.6-11.37c1.78-0.66,3.55-1.36,5.33-2.01
				c2.78-1.01,5.36-0.6,7.57,1.37c2.27,2.03,3.01,4.62,2.2,7.57c-3.41,12.4-6.81,24.81-10.28,37.2
				C54.76-126.7,48.16-124.88,43.97-128.95z"/>
			<path class="st1" d="M51.47-56.41c-0.35-0.32-0.58-0.76-0.74-1.26c-1.17-3.66-3.64-5.91-7.38-6.77
				c-1.97-0.45-2.98-2.27-2.16-4.06c0.31-0.68,0.93-1.12,1.66-1.39c3.81-1.41,7.62-2.83,11.43-4.25c0.66-0.25,1.33-0.51,1.99-0.75
				c1.04-0.38,2-0.22,2.83,0.51c0.85,0.76,1.12,1.73,0.82,2.83c-1.27,4.63-2.55,9.27-3.84,13.89C55.5-55.57,53.03-54.89,51.47-56.41
				z"/>
		</g>
		<g>
			<path class="st1" d="M101.23-201.01c-0.42-0.39-0.71-0.94-0.91-1.55c-1.43-4.5-4.47-7.27-9.06-8.32
				c-2.42-0.56-3.66-2.78-2.65-4.99c0.38-0.84,1.14-1.37,2.04-1.7c4.69-1.73,9.36-3.48,14.04-5.22c0.82-0.3,1.63-0.62,2.45-0.92
				c1.28-0.47,2.46-0.28,3.47,0.63c1.04,0.93,1.38,2.12,1.01,3.47c-1.56,5.69-3.13,11.38-4.72,17.07
				C106.19-199.98,103.16-199.15,101.23-201.01z"/>
		</g>
	</g>
</pattern>
<rect class="st2" width="200" height="200"/>
</svg>
