<?xml version="1.0" encoding="UTF-8"?>
<svg id="Layer_1" data-name="Layer 1" xmlns="http://www.w3.org/2000/svg" xmlns:xlink="http://www.w3.org/1999/xlink" viewBox="0 0 200 200">
  <defs>
    <style>
      .cls-1 {
        fill: none;
      }

      .cls-2 {
        fill: #fff;
      }

      .cls-3 {
        fill: url(#New_Pattern);
        opacity: .05;
      }
    </style>
    <pattern id="New_Pattern" data-name="New Pattern" x="0" y="0" width="200" height="200" patternTransform="translate(-583 -284)" patternUnits="userSpaceOnUse" viewBox="0 0 200 200">
      <g>
        <rect class="cls-1" width="200" height="200"/>
        <path class="cls-2" d="M179.23,180.92c-.42-.39-.71-.94-.91-1.55-1.43-4.5-4.47-7.27-9.06-8.32-2.42-.56-3.66-2.78-2.65-4.99,.38-.84,1.14-1.37,2.04-1.7,4.69-1.73,9.36-3.48,14.04-5.22,.82-.3,1.63-.62,2.45-.92,1.28-.47,2.46-.28,3.47,.63,1.04,.93,1.38,2.12,1.01,3.47-1.56,5.69-3.13,11.38-4.72,17.07-.72,2.56-3.75,3.4-5.67,1.53Z"/>
        <path class="cls-2" d="M102.67,190.92c-1-.92-1.67-2.2-2.13-3.63-3.35-10.55-10.48-17.02-21.23-19.5-5.66-1.3-8.58-6.52-6.22-11.68,.9-1.96,2.68-3.22,4.78-3.99,10.98-4.05,21.94-8.15,32.9-12.23,1.91-.71,3.81-1.46,5.73-2.16,2.99-1.09,5.77-.65,8.13,1.47,2.44,2.18,3.24,4.97,2.36,8.14-3.67,13.34-7.33,26.67-11.05,39.99-1.68,6-8.78,7.96-13.29,3.59Z"/>
        <path class="cls-2" d="M136.12,61.51c-.56-.52-.95-1.24-1.21-2.06-1.9-5.98-5.95-9.65-12.04-11.06-3.21-.74-4.87-3.7-3.53-6.63,.51-1.11,1.52-1.82,2.71-2.26,6.22-2.3,12.44-4.62,18.66-6.93,1.09-.4,2.16-.83,3.25-1.22,1.7-.62,3.27-.37,4.61,.83,1.39,1.24,1.83,2.82,1.34,4.61-2.08,7.56-4.15,15.12-6.27,22.68-.95,3.4-4.98,4.51-7.53,2.03Z"/>
        <path class="cls-2" d="M43.97,70.98c-.93-.85-1.56-2.04-1.98-3.38-3.12-9.81-9.75-15.83-19.75-18.14-5.26-1.21-7.98-6.07-5.78-10.87,.84-1.82,2.49-2.99,4.44-3.71,10.21-3.77,20.4-7.58,30.6-11.37,1.78-.66,3.55-1.36,5.33-2.01,2.78-1.01,5.36-.6,7.57,1.37,2.27,2.03,3.01,4.62,2.2,7.57-3.41,12.4-6.81,24.81-10.28,37.2-1.56,5.58-8.17,7.4-12.36,3.34Z"/>
        <path class="cls-2" d="M32.47,136.52c-.35-.32-.58-.76-.74-1.26-1.17-3.66-3.64-5.91-7.38-6.77-1.97-.45-2.98-2.27-2.16-4.06,.31-.68,.93-1.12,1.66-1.39,3.81-1.41,7.62-2.83,11.43-4.25,.66-.25,1.33-.51,1.99-.75,1.04-.38,2-.22,2.83,.51,.85,.76,1.12,1.73,.82,2.83-1.27,4.63-2.55,9.27-3.84,13.89-.58,2.08-3.05,2.76-4.62,1.25Z"/>
      </g>
    </pattern>
  </defs>
  <rect class="cls-3" width="200" height="200"/>
</svg>